<?xml version="1.0" encoding="UTF-8" standalone="no"?>
<!-- Created with Inkscape (http://www.inkscape.org/) -->

<svg
   width="30mm"
   height="30mm"
   viewBox="0 0 30 30"
   version="1.1"
   id="svg5"
   xml:space="preserve"
   inkscape:version="1.3.2 (091e20ef0f, 2023-11-25, custom)"
   sodipodi:docname="signature.svg"
   inkscape:export-filename="bytemanzer-c.png"
   inkscape:export-xdpi="200"
   inkscape:export-ydpi="200"
   xmlns:inkscape="http://www.inkscape.org/namespaces/inkscape"
   xmlns:sodipodi="http://sodipodi.sourceforge.net/DTD/sodipodi-0.dtd"
   xmlns="http://www.w3.org/2000/svg"
   xmlns:svg="http://www.w3.org/2000/svg"><sodipodi:namedview
     id="namedview7"
     pagecolor="#ffffff"
     bordercolor="#000000"
     borderopacity="0.25"
     inkscape:showpageshadow="2"
     inkscape:pageopacity="0.0"
     inkscape:pagecheckerboard="0"
     inkscape:deskcolor="#d1d1d1"
     inkscape:document-units="mm"
     showgrid="false"
     inkscape:zoom="4"
     inkscape:cx="130.75"
     inkscape:cy="5.75"
     inkscape:window-width="2560"
     inkscape:window-height="1375"
     inkscape:window-x="2560"
     inkscape:window-y="0"
     inkscape:window-maximized="1"
     inkscape:current-layer="layer1"
     showguides="true" /><defs
     id="defs2"><rect
       x="209.82347"
       y="355.93222"
       width="416.43195"
       height="344.98932"
       id="rect113" /></defs><g
     inkscape:label="Layer 1"
     inkscape:groupmode="layer"
     id="layer1"
     transform="translate(-39.585713,-46.909299)"><path
       id="path14"
       style="color:#000000;display:inline;fill:#df691a;fill-opacity:1;stroke:#343a40;stroke-width:2.111;stroke-dasharray:none;stroke-opacity:1"
       d="m 41.879222,47.964806 v 4.731645 h 4.867858 c -0.364194,0.828284 -0.568561,1.737532 -0.569087,2.707441 v 7.74e-4 7.75e-4 c 0,1.771755 0.486368,3.616186 1.809133,5.097951 0.721684,0.808428 1.617328,1.486433 2.705335,2.12056 l -8.813239,9.484797 v 3.74505 h 25.412981 v -4.731656 h -4.867857 c 0.364195,-0.828279 0.568562,-1.737527 0.569089,-2.707438 v -7.75e-4 -7.74e-4 c 0,-1.77175 -0.487166,-3.616981 -1.809932,-5.098744 -0.721715,-0.80846 -1.616459,-1.486406 -2.704544,-2.120563 L 67.292203,51.70905 V 47.9648 Z m 14.332156,4.731645 h 3.705814 l -5.893001,6.341779 c -1.339314,-0.680515 -2.133111,-1.264101 -2.509539,-1.685779 -0.541523,-0.606614 -0.607294,-0.850998 -0.607294,-1.946966 0.0022,-1.252656 1.401895,-2.706646 3.677961,-2.706646 h 1.626059 z M 55.147236,64.78039 c 1.339314,0.680515 2.132314,1.264105 2.508742,1.68578 0.541522,0.606612 0.608083,0.850994 0.608083,1.946966 -0.0015,1.252623 -1.402684,2.706642 -3.678742,2.706642 H 52.96004 v 0.0025 h -3.705813 z"
       inkscape:label="ZS-thick-cut v2"
       sodipodi:nodetypes="cccscssccccccscsscccccccscscccscscccc" /></g></svg>
